<svg xmlns="http://www.w3.org/2000/svg" width="40" height="40" viewBox="0 0 40 40">
    <g fill="none" fill-rule="evenodd">
        <g fill-rule="nonzero">
            <g>
                <path fill="#ED1D24" d="M0 39.834L39.937 39.834 39.937 0 0 0 0 39.834z" transform="translate(-120 -17) translate(120 17)"/>
                <path fill="#FFF" d="M29.402 5.434L31.959 5.434 31.959 18.018 29.402 18.018z" transform="translate(-120 -17) translate(120 17)"/>
                <g fill="#FFF">
                    <path d="M8.418 4.709c0-2.36-1.8-4.182-4.155-4.182C1.913.527.069 2.348.069 4.71v8.402h2.494V4.709c0-.954.758-1.724 1.7-1.724.946 0 1.698.77 1.698 1.724v8.402h2.457V4.709z" transform="translate(-120 -17) translate(120 17) matrix(1 0 0 -1 5.003 18.545)"/>
                </g>
                <g fill="#FFF">
                    <path d="M8.418 0L0.014 0 0.014 12.579 2.561 12.579 2.561 2.558 8.418 2.558z" transform="translate(-120 -17) translate(120 17) matrix(1 0 0 -1 16.818 34.409)"/>
                </g>
                <g fill="#FFF">
                    <path d="M8.418 0L5.864 0 2.561 7.209 2.561 0 0.014 0 0.014 12.584 2.561 12.584 5.864 5.385 5.864 12.584 8.418 12.584z" transform="translate(-120 -17) translate(120 17) matrix(1 0 0 -1 16.818 18.017)"/>
                </g>
                <g fill="#FFF">
                    <path d="M4.709 15.696c-2.347 0-4.193-1.88-4.193-4.156V7.274c0-2.247 1.846-4.157 4.193-4.157.284 0 .56.03.824.079L6.409.57h2.456L7.702 4.35c.681.778 1.163 1.837 1.163 2.924v4.266c0 2.276-1.8 4.156-4.156 4.156m1.7-8.422c0-.828-.752-1.598-1.7-1.598-.94 0-1.698.77-1.698 1.598v4.266c0 .94.758 1.695 1.698 1.695.948 0 1.7-.755 1.7-1.695V7.274z" transform="translate(-120 -17) translate(120 17) matrix(1 0 0 -1 4.555 37.526)"/>
                </g>
                <g fill="#FFF">
                    <path d="M4.709 12.698c-2.353 0-4.158-1.88-4.158-4.156V4.275C.55 2.03 2.356.12 4.709.12c2.348 0 4.156 1.91 4.156 4.156v4.267c0 2.276-1.808 4.156-4.156 4.156m1.704-8.423c0-.827-.769-1.597-1.704-1.597-.94 0-1.705.77-1.705 1.597v4.267c0 .94.765 1.695 1.705 1.695.935 0 1.704-.755 1.704-1.695V4.275z" transform="translate(-120 -17) translate(120 17) matrix(1 0 0 -1 25.967 34.528)"/>
                </g>
            </g>
        </g>
    </g>
</svg>
